# xmcd
#
# Track frame offsets: 
#        150
#        20740
#        38633
#        59225
#        79815
#
# Disc length: 1300 seconds
#
# Revision: 0
# Processed by: cddbd v1.5.2PL0 Copyright (c) Steve Scherf et al.
# Submitted via: ExactAudioCopy v1.0b3
#
DISCID=3f051205
DTITLE=竹島宏 - 夜明けのカラス
DYEAR=2016
DGENRE=JPop
TTITLE0=夜明けのカラス
TTITLE1=故郷よ・・・
TTITLE2=夜明けのカラス(オリジナルカラオケ)
TTITLE3=夜明けのカラス(メロ入りカラオケ)
TTITLE4=故郷よ・・・(オリジナルカラオケ)
EXTD=
EXTT0=
EXTT1=
EXTT2=
EXTT3=
EXTT4=
PLAYORDER=
